<svg width="57" height="62" viewBox="0 0 57 62" fill="none" xmlns="http://www.w3.org/2000/svg">
<g id="Group">
<path id="Vector" d="M37.2952 32.4216C35.6475 32.4216 33.9998 32.4163 32.3521 32.4216C30.6443 32.4286 29.9216 33.5147 30.7544 34.8218C31.6954 36.3005 32.6804 37.7579 33.5914 39.249C34.7166 41.0903 36.4704 41.9623 38.7948 42.0897C41.5336 42.24 44.2685 42.4399 47.0053 42.615C48.3187 42.6999 49.3498 43.2181 50.0124 44.221C52.1467 47.4561 54.2729 50.6947 56.369 53.9493C57.0798 55.0512 56.5512 56.399 55.2379 57.0535C53.9125 57.7132 52.3969 57.4125 51.6501 56.2911C50.3087 54.28 48.9694 52.2672 47.688 50.226C46.4968 48.3246 44.6969 47.4349 42.2644 47.3765C37.7737 47.2686 33.2831 47.1254 28.7924 46.9768C27.2848 46.9272 26.2578 46.2038 25.521 45.07C22.8022 40.8869 20.0653 36.7144 17.3365 32.5365C16.7759 31.6787 16.2554 30.7978 15.6507 29.963C13.6887 27.2532 15.893 23.5813 19.6949 23.178C21.9072 22.9445 23.6551 23.6626 24.7322 25.4615C24.8483 25.656 24.9964 25.8364 25.1006 26.0363C25.7212 27.2161 26.7723 27.6795 28.2278 27.6707C32.8967 27.6406 37.5655 27.6565 42.2344 27.6618C43.7039 27.6618 44.795 28.5214 44.9892 29.8056C45.1554 30.9004 44.2645 32.0377 42.9771 32.3455C42.7169 32.4074 42.4366 32.418 42.1643 32.418C40.5406 32.4251 38.9189 32.4216 37.2952 32.4216Z" fill="#05B6C7"/>
<path id="Vector_2" d="M31.981 61.9866C29.06 61.9866 26.1389 61.9512 23.2179 61.999C21.348 62.0308 20.0646 61.3605 19.1337 59.9295C13.0113 50.5161 6.86091 41.1169 0.706519 31.7194C0.0898783 30.7784 -0.218441 29.8162 0.175969 28.755C0.642454 27.4956 1.61947 26.6961 3.10101 26.4803C4.66263 26.2522 6.00002 26.6926 6.86092 27.89C7.87397 29.3033 8.78691 30.7714 9.7339 32.2218C13.5619 38.0764 17.3959 43.9292 21.2078 49.7909C22.3931 51.6128 24.1048 52.5308 26.5053 52.5785C30.9219 52.6687 35.3365 52.8332 39.7511 52.9659C41.3227 53.0136 42.542 53.5938 43.2828 54.839C43.9054 55.8844 44.6762 56.9032 45.0346 58.021C45.6212 59.8535 43.8714 61.8823 41.7131 61.9318C38.4698 62.0078 35.2244 61.9512 31.979 61.9512C31.979 61.9618 31.979 61.9725 31.979 61.9848L31.981 61.9866Z" fill="#05B6C7"/>
<path id="Vector_3" d="M38.4511 19.651C32.3127 19.6563 27.3435 15.2415 27.3535 9.79545C27.3655 4.38832 32.3307 0.0017693 38.4411 5.32362e-07C44.5794 -0.00176824 49.5446 4.40424 49.5406 9.85205C49.5366 15.2468 44.5574 19.6457 38.4491 19.651H38.4511ZM36.1727 11.7623C35.4559 11.1609 34.7993 10.6215 34.1586 10.0696C33.7262 9.6964 33.2477 9.55666 32.7792 9.94933C32.2987 10.3508 32.4568 10.7789 32.8813 11.1609C33.6681 11.8702 34.4449 12.5866 35.2337 13.2923C35.8744 13.8636 36.2648 13.8618 36.9435 13.287C38.1147 12.2947 39.2819 11.2989 40.4491 10.3031C41.2039 9.65925 41.9627 9.02073 42.7015 8.36451C43.0699 8.03729 43.1019 7.64462 42.7575 7.29794C42.3832 6.9212 41.9387 6.9212 41.5042 7.24488C41.3321 7.37223 41.1719 7.51197 41.0117 7.64993C39.394 9.02603 37.7764 10.4021 36.1747 11.7641L36.1727 11.7623Z" fill="#05B6C7"/>
<path id="Vector_4" d="M18.3633 15.3848C18.3673 18.0149 15.9188 20.1976 12.9517 20.2082C9.99663 20.2188 7.51805 18.0361 7.50203 15.4131C7.48601 12.7988 9.95458 10.6038 12.9217 10.5967C15.8948 10.5879 18.3593 12.7581 18.3633 15.3865V15.3848Z" fill="#05B6C7"/>
</g>
</svg>
