<svg width="60" height="60" viewBox="0 0 60 60" fill="none" xmlns="http://www.w3.org/2000/svg">
<path id="Vector" d="M37.8803 48.6777C38.3662 49.2564 38.8965 49.8906 39.4268 50.5226C39.4867 50.4849 39.5466 50.4472 39.6065 50.4095V41.1228C39.398 41.2603 39.2182 41.3623 39.0562 41.4864C36.3537 43.5642 33.2939 44.5887 29.8879 44.5887C23.44 44.5887 16.9898 44.5887 10.5418 44.5887C10.2422 44.5887 9.9449 44.5887 9.46119 44.5887C10.3221 45.3426 11.0565 45.9857 11.7178 46.5644C10.3665 47.906 9.20157 49.0613 8.08105 50.1722C5.44727 47.5334 2.69813 44.7794 0 42.0785C2.58718 39.4929 5.23871 36.8453 7.84364 34.2398C8.92422 35.3263 10.0691 36.4772 11.3583 37.7722C10.7858 38.2268 10.1202 38.7545 9.45231 39.2823C9.50778 39.3599 9.56547 39.4353 9.62095 39.5129H18.9224C18.7915 39.3178 18.7027 39.1625 18.594 39.0206C16.4838 36.3064 15.4388 33.2286 15.4388 29.7938C15.4388 23.3498 15.4388 16.9037 15.4388 10.4598C15.4388 10.1626 15.4388 9.86547 15.4388 9.3732C14.7665 10.1316 14.2117 10.7569 13.7147 11.3179C12.3989 9.99852 11.2518 8.84988 10.1757 7.76998C12.7185 5.23099 15.3722 2.5789 17.9527 0C20.5909 2.63656 23.3401 5.38621 26.0094 8.05381C24.9754 9.08715 23.815 10.2469 22.5502 11.5086C22.0044 10.8966 21.3476 10.1626 20.6886 9.42863L20.5133 9.54394V18.844C20.7285 18.6976 20.9038 18.5934 21.0658 18.4692C23.7439 16.4114 26.7705 15.3692 30.1476 15.3648C36.6244 15.3581 43.1012 15.3648 49.5758 15.3648H50.7474C49.9198 14.7018 49.2652 14.1762 48.6816 13.7105C50.0484 12.3468 51.1956 11.2026 52.2939 10.1094C54.8079 12.644 57.4461 15.3027 60 17.8794C57.384 20.496 54.6215 23.2567 51.9012 25.9753C50.8694 24.942 49.7245 23.7955 48.513 22.5848C49.1698 21.9706 49.8909 21.2965 50.6098 20.6224C50.5743 20.5625 50.5366 20.5048 50.5011 20.445H41.213C41.3439 20.6445 41.4437 20.8242 41.568 20.9838C43.6315 23.6581 44.67 26.6871 44.6766 30.0599C44.6877 36.5326 44.6788 43.0054 44.6788 49.4759C44.6788 49.7753 44.6788 50.0769 44.6788 50.6002C45.4244 49.7066 46.0501 48.9571 46.6026 48.294C47.9805 49.6755 49.1387 50.8352 50.2459 51.9484C47.6255 54.565 44.8719 57.3124 42.1804 60C39.5999 57.4255 36.9483 54.7779 34.3456 52.1812C35.4195 51.1146 36.5689 49.9704 37.8714 48.6754L37.8803 48.6777ZM30.1054 20.3762C24.86 20.3474 20.4711 24.7069 20.46 29.9579C20.4489 35.1667 24.7713 39.5329 29.9856 39.5794C35.2332 39.626 39.642 35.2842 39.6731 30.0355C39.7041 24.7845 35.3685 20.4051 30.1054 20.3762Z" fill="#05B6C7"/>
</svg>
