<svg width="60" height="60" viewBox="0 0 60 60" fill="none" xmlns="http://www.w3.org/2000/svg">
<g id="Group">
<path id="Vector" d="M46.7318 18.6543C44.8463 16.0171 42.6307 13.9355 40.0067 12.3866C37.392 10.844 34.5983 9.96629 31.6013 9.67717V0C40.6874 0.772356 48.0168 5.11118 53.7627 12.9421C52.4908 14.6686 51.2469 16.3661 49.9955 18.0533C44.3875 25.6158 38.7721 33.1721 33.1735 40.7428C32.1794 42.0872 30.9952 42.8844 29.382 42.7171C27.7427 42.5478 26.4148 41.3458 25.9243 39.5967C25.4375 37.862 25.9168 36.0075 27.2354 34.8861C29.9806 32.5464 32.7464 30.2375 35.5177 27.9349C39.1078 24.9529 42.7109 21.9936 46.3085 19.0219C46.4371 18.9145 46.5621 18.8009 46.7318 18.6501V18.6543Z" fill="#05B6C7"/>
<path id="Vector_2" d="M55.6455 15.9985C57.2866 18.9661 58.4653 22.008 59.1348 25.2565C61.2366 35.452 59.5134 44.7987 53.9185 53.2451C53.0998 54.4821 52.1785 54.5978 51.136 53.6313C49.8883 52.4728 48.6406 51.3163 47.4023 50.1433C46.4455 49.2367 46.3542 48.3755 47.0964 47.2542C50.2501 42.492 51.5873 37.1495 51.2124 31.2825C51.0707 29.0687 50.61 26.9127 49.8473 24.8538C49.6664 24.3644 49.7092 24.0277 50.0207 23.6126C51.8913 21.118 53.732 18.5965 55.6455 15.9985Z" fill="#05B6C7"/>
<path id="Vector_3" d="M7.60349 11.1184C9.67175 13.4086 11.6878 15.6431 13.7598 17.9374C10.8485 21.7497 9.09547 26.2207 8.72061 31.3587H0C0.423349 23.5897 2.98582 16.8677 7.60349 11.1184Z" fill="#05B6C7"/>
<path id="Vector_4" d="M10.0605 8.42581C15.2283 3.37245 21.2969 0.549424 28.2943 0.020752C28.3185 0.23346 28.3484 0.380084 28.3484 0.526708C28.3521 3.36006 28.3446 6.19341 28.3577 9.02469C28.3596 9.48728 28.2756 9.70412 27.8001 9.75162C23.6375 10.1812 19.9467 11.9055 16.6904 14.7926C16.5095 14.9537 16.3286 15.1147 16.2037 15.2283C14.1597 12.965 12.1306 10.7202 10.0586 8.42581H10.0605Z" fill="#05B6C7"/>
<path id="Vector_5" d="M0.030136 35.0142H8.56611C8.93351 36.8439 9.20953 38.6405 9.66272 40.3814C10.2949 42.8183 11.3729 45.0383 12.7175 47.0951C13.6015 48.4478 13.4971 49.2656 12.3408 50.3353C11.1472 51.4422 9.97044 52.5718 8.77126 53.6746C7.75858 54.6039 6.86153 54.5007 6.08197 53.3649C2.42663 48.0389 0.453485 42.0129 0.0114863 35.359C0.00402641 35.2599 0.0226761 35.1587 0.032001 35.0142H0.030136Z" fill="#05B6C7"/>
<path id="Vector_6" d="M29.9949 56.4315C34.7171 56.4315 39.441 56.4253 44.1631 56.4377C45.4649 56.4418 46.2015 57.59 45.7577 58.8807C45.5078 59.6097 45.0024 59.9752 44.3086 59.9897C43.4712 60.0083 42.6339 59.9959 41.7965 59.9959C33.1654 59.9959 24.5343 59.9959 15.9013 59.9959C14.6182 59.9959 13.9413 59.2049 14.083 57.9018C14.1688 57.1192 14.6984 56.5203 15.4071 56.4583C15.8696 56.417 16.3377 56.4335 16.8021 56.4335C21.1997 56.4335 25.5955 56.4335 29.9931 56.4335L29.9949 56.4315Z" fill="#05B6C7"/>
<path id="Vector_7" d="M29.9574 52.8755C28.029 52.8755 26.1006 52.8941 24.1722 52.8672C22.9357 52.8507 22.2065 51.6839 22.6094 50.4324C22.8462 49.6973 23.333 49.3152 24.0361 49.307C25.1737 49.2925 26.3132 49.2925 27.4508 49.2925C30.17 49.2925 32.8872 49.2842 35.6064 49.2966C36.7086 49.3008 37.3296 49.8749 37.3949 50.8847C37.4732 52.0907 36.8223 52.8631 35.6716 52.8714C33.7675 52.8858 31.8615 52.8755 29.9555 52.8755H29.9574Z" fill="#05B6C7"/>
</g>
</svg>
