<svg width="52" height="62" viewBox="0 0 52 62" fill="none" xmlns="http://www.w3.org/2000/svg">
<g id="Group">
<path id="Vector" d="M26.6042 0.00161869C29.0172 0.927508 31.4268 1.86149 33.843 2.77767C39.1928 4.8075 44.5474 6.82763 49.9004 8.85099C51.4103 9.42076 51.988 10.1945 51.9847 11.7484C51.9733 18.6538 52.0644 25.5623 51.9017 32.4644C51.7472 39.033 49.4156 44.8781 45.169 49.9139C40.3057 55.6813 34.0968 59.469 26.9785 61.8452C26.4041 62.0378 25.654 62.0573 25.0846 61.8663C17.4618 59.3071 10.8738 55.207 5.92271 48.7824C2.56121 44.42 0.660802 39.4636 0.174312 33.986C0.0669262 32.7817 0.0132317 31.5677 0.00997758 30.3585C-0.00629299 24.2399 0.00184587 18.1212 0.00347293 12.0026C0.00347293 10.1524 0.473691 9.4758 2.19837 8.82347C9.88134 5.91792 17.5627 3.01238 25.244 0.105215C25.2977 0.0857905 25.34 0.0356111 25.3872 0C25.794 0 26.1991 0 26.6059 0L26.6042 0.00161869ZM46.7179 23.3334C46.7358 23.3334 46.7537 23.3334 46.7716 23.3334C46.7716 20.1446 46.7635 16.9541 46.7814 13.7653C46.783 13.3558 46.661 13.1713 46.2721 13.024C39.7037 10.5522 33.145 8.05783 26.5733 5.59419C26.2365 5.46793 25.7679 5.46793 25.4295 5.59419C18.879 8.04812 12.3431 10.5344 5.79417 12.9948C5.33208 13.168 5.2068 13.3963 5.20843 13.8705C5.22633 19.3012 5.20843 24.7303 5.22795 30.161C5.23121 31.3702 5.2849 32.5826 5.40042 33.7853C5.83484 38.2901 7.44238 42.353 10.2149 45.9351C14.224 51.1182 19.5428 54.4543 25.6719 56.6088C25.8769 56.6816 26.1552 56.6751 26.3618 56.6023C32.0256 54.6097 37.0077 51.5763 40.9305 46.9857C44.5458 42.756 46.4999 37.8417 46.6984 32.2928C46.8058 29.3096 46.7179 26.3183 46.7179 23.3318V23.3334Z" fill="#05B6C7"/>
<path id="Vector_2" d="M18.2554 36.2569C18.1968 37.0047 18.2245 37.7234 18.0715 38.4C17.6241 40.3813 15.8262 41.5581 13.724 41.3169C11.8838 41.1065 10.4162 39.4279 10.4097 37.5049C10.4016 35.1238 10.3983 32.7411 10.4097 30.36C10.4179 28.6151 11.2558 27.346 12.7104 26.4153C13.0195 26.2178 13.3156 25.8908 13.4572 25.5557C14.2138 23.7768 14.915 21.9752 15.644 20.1833C16.8838 17.1353 19.3097 15.5134 22.6192 15.5118C24.9719 15.5118 27.3262 15.4729 29.679 15.5215C32.6744 15.583 34.8709 16.9896 36.114 19.6961C37.004 21.6337 37.7199 23.6522 38.5481 25.6189C38.675 25.9216 38.9434 26.221 39.2249 26.3926C40.7234 27.3088 41.5663 28.5973 41.5776 30.3632C41.5923 32.7249 41.5874 35.0866 41.5793 37.4466C41.5728 39.6399 39.8871 41.338 37.7118 41.3574C35.5282 41.3768 33.8019 39.6529 33.7905 37.4385C33.7889 37.0581 33.7905 36.6777 33.7905 36.2537H18.2538L18.2554 36.2569ZM34.3974 25.7937C33.7271 24.1637 33.1495 22.5725 32.4222 21.0509C31.895 19.947 30.8651 19.4112 29.6416 19.395C27.2075 19.3643 24.7718 19.3643 22.3361 19.395C21.1646 19.4096 20.1428 19.9049 19.6286 20.9587C18.872 22.5094 18.2749 24.1362 17.5818 25.7937H34.3958H34.3974Z" fill="#05B6C7"/>
</g>
</svg>
