<svg width="248" height="63" viewBox="0 0 248 63" fill="none" xmlns="http://www.w3.org/2000/svg">
<g id="Group">
<g id="Group_2">
<path id="Vector" d="M0 0.933594H15.9664C18.3821 0.933594 20.6114 1.36852 22.6487 2.23256C24.686 3.09661 26.4439 4.2738 27.9282 5.75254C29.4125 7.23127 30.5766 8.98256 31.4264 11.0122C32.2763 13.0418 32.7012 15.1933 32.7012 17.4781C32.7012 19.7628 32.2763 21.9143 31.4264 23.9439C30.5766 25.9735 29.4125 27.7248 27.9282 29.2036C26.4439 30.6823 24.6743 31.8537 22.6138 32.7235C20.5532 33.5876 18.318 34.0225 15.9024 34.0225H8.84178V47.2036H0V0.939393V0.933594ZM8.84178 9.11014V25.8402H15.332C16.6067 25.8402 17.7592 25.6198 18.8012 25.1733C19.8373 24.7326 20.7337 24.1295 21.4729 23.3698C22.2121 22.6101 22.7884 21.7229 23.19 20.7081C23.5917 19.6933 23.7954 18.6146 23.7954 17.4781C23.7954 16.3415 23.5917 15.257 23.19 14.248C22.7884 13.2332 22.2121 12.346 21.4729 11.5863C20.7278 10.8266 19.8373 10.2235 18.8012 9.78282C17.7592 9.3363 16.6067 9.11594 15.332 9.11594H8.84178V9.11014Z" fill="white"/>
<path id="Vector_2" d="M49.7109 47.8358C48.017 47.8358 46.265 47.4995 44.4605 46.821C42.6561 46.1484 41.0146 45.1335 39.5303 43.7766C38.046 42.4254 36.8178 40.7147 35.8399 38.6445C34.862 36.5743 34.3789 34.1445 34.3789 31.3552C34.3789 28.5659 34.8446 26.1361 35.7759 24.0659C36.7072 21.9956 37.9179 20.2734 39.4022 18.899C40.8865 17.5246 42.5513 16.5098 44.3965 15.8545C46.2417 15.1993 48.0519 14.8745 49.8331 14.8745C51.9111 14.8745 53.7447 15.2225 55.3337 15.9183C56.9228 16.6142 58.25 17.513 59.3093 18.6148V15.5066H68.0231V47.198H59.3093V43.6664C59.3093 43.6664 59.3035 43.6548 59.2977 43.6664C58.2383 44.8842 56.8937 45.8816 55.2697 46.6645C53.6341 47.4473 51.7831 47.8358 49.705 47.8358H49.7109ZM51.428 39.8507C52.6154 39.8507 53.7098 39.6303 54.7051 39.1838C55.7005 38.7373 56.5619 38.1284 57.2837 37.3455C58.0055 36.5627 58.5643 35.658 58.9717 34.62C59.3734 33.5878 59.5771 32.4744 59.5771 31.2914C59.5771 30.1084 59.3734 29.0008 58.9717 27.9628C58.5701 26.9306 58.0055 26.0317 57.2837 25.2663C56.5619 24.5066 55.7005 23.9035 54.7051 23.4628C53.7098 23.0221 52.6154 22.7959 51.428 22.7959C50.2406 22.7959 49.1288 23.0105 48.0869 23.428C47.0449 23.8513 46.1485 24.4428 45.386 25.2025C44.6235 25.9621 44.0181 26.861 43.5758 27.899C43.1334 28.937 42.9064 30.062 42.9064 31.2914C42.9064 32.5208 43.1276 33.6458 43.5758 34.6838C44.0181 35.7218 44.6235 36.6148 45.386 37.3803C46.1485 38.14 47.0508 38.7431 48.0869 39.1838C49.123 39.6303 50.2406 39.8507 51.428 39.8507Z" fill="white"/>
<path id="Vector_3" d="M164.711 0.933594H173.425V47.1978H164.711V0.933594Z" fill="white"/>
<path id="Vector_4" d="M192.756 47.8358C191.062 47.8358 189.31 47.4995 187.505 46.821C185.701 46.1484 184.06 45.1335 182.575 43.7766C181.091 42.4254 179.863 40.7147 178.885 38.6445C177.907 36.5743 177.424 34.1445 177.424 31.3552C177.424 28.5659 177.889 26.1361 178.821 24.0659C179.752 21.9956 180.963 20.2734 182.447 18.899C183.931 17.5246 185.596 16.5098 187.441 15.8545C189.287 15.1993 191.097 14.8745 192.878 14.8745C194.956 14.8745 196.79 15.2225 198.379 15.9183C199.968 16.6142 201.295 17.513 202.354 18.6148V15.5066H211.068V47.198H202.354V43.6664C202.354 43.6664 202.348 43.6548 202.343 43.6664C201.283 44.8842 199.939 45.8816 198.315 46.6645C196.679 47.4473 194.828 47.8358 192.75 47.8358H192.756ZM194.473 39.8507C195.66 39.8507 196.755 39.6303 197.75 39.1838C198.745 38.7373 199.607 38.1284 200.329 37.3455C201.05 36.5627 201.609 35.658 202.017 34.62C202.418 33.5878 202.622 32.4744 202.622 31.2914C202.622 30.1084 202.418 29.0008 202.017 27.9628C201.615 26.9306 201.05 26.0317 200.329 25.2663C199.607 24.5066 198.745 23.9035 197.75 23.4628C196.755 23.0221 195.66 22.7959 194.473 22.7959C193.285 22.7959 192.174 23.0105 191.132 23.428C190.09 23.8513 189.193 24.4428 188.431 25.2025C187.668 25.9621 187.063 26.861 186.621 27.899C186.178 28.937 185.951 30.062 185.951 31.2914C185.951 32.5208 186.172 33.6458 186.621 34.6838C187.063 35.7218 187.668 36.6148 188.431 37.3803C189.193 38.1458 190.096 38.7431 191.132 39.1838C192.168 39.6303 193.285 39.8507 194.473 39.8507Z" fill="white"/>
<path id="Vector_5" d="M226.824 45.806L214.164 15.5122H223.326L231.149 35.0315L238.466 15.5122H247.5L229.054 61.8402H220.34L226.83 45.806H226.824Z" fill="white"/>
<path id="Vector_6" d="M129.22 15.5122H119.214L106.164 31.3608L119.214 47.2036H129.22L116.176 31.3608L129.22 15.5122Z" fill="white"/>
<path id="Vector_7" d="M106.165 0.933594H97.4512V47.1978H106.165V0.933594Z" fill="white"/>
<path id="Vector_8" d="M144.379 14.8799C135.246 14.8799 127.836 22.2562 127.836 31.3606C127.836 40.4649 135.24 47.8412 144.379 47.8412C153.517 47.8412 160.921 40.4649 160.921 31.3606C160.921 22.2562 153.517 14.8799 144.379 14.8799ZM144.379 39.3457C139.949 39.3457 136.363 35.7678 136.363 31.3606C136.363 26.9533 139.955 23.3754 144.379 23.3754C148.802 23.3754 152.394 26.9533 152.394 31.3606C152.394 35.7678 148.802 39.3457 144.379 39.3457Z" fill="white"/>
<path id="Vector_9" d="M90.3278 15.5122C88.1625 15.5122 86.3639 15.9645 84.9203 16.875C83.4768 17.7854 82.3534 19.0612 81.5501 20.7081V15.5122H72.9004V47.2036H81.6141V29.8705C81.6141 26.5998 84.2742 23.9439 87.563 23.9439H93.8319V15.5122H90.3337H90.3278Z" fill="white"/>
</g>
<path id="Vector_10" d="M144.38 62.7156C144.106 62.7156 143.844 62.6054 143.652 62.414L133.553 52.3528C133.198 51.9991 133.151 51.4366 133.443 51.0248C133.64 50.7465 133.955 50.5957 134.281 50.5957C134.438 50.5957 134.595 50.6305 134.741 50.7059C137.762 52.202 141.004 52.9617 144.38 52.9617C147.756 52.9617 150.998 52.202 154.019 50.7059C154.165 50.6305 154.322 50.5957 154.479 50.5957C154.799 50.5957 155.119 50.7465 155.317 51.0248C155.614 51.4308 155.567 51.9933 155.206 52.3528L145.107 62.414C144.915 62.6054 144.653 62.7156 144.38 62.7156Z" fill="#05B6C7"/>
<path id="Vector_11" d="M154.473 12.114C154.316 12.114 154.159 12.0793 154.014 12.0039C150.998 10.5077 147.75 9.74807 144.374 9.74807C140.998 9.74807 137.756 10.5077 134.735 12.0039C134.59 12.0793 134.432 12.114 134.275 12.114C133.955 12.114 133.635 11.9633 133.437 11.6849C133.14 11.279 133.187 10.7165 133.548 10.357L143.653 0.301546C143.845 0.11018 144.107 0 144.38 0C144.654 0 144.916 0.11018 145.108 0.301546L155.207 10.3628C155.562 10.7165 155.608 11.279 155.317 11.6907C155.119 11.9691 154.805 12.1198 154.479 12.1198L154.473 12.114Z" fill="#05B6C7"/>
</g>
</svg>
