<svg width="201" height="32" viewBox="0 0 201 32" fill="none" xmlns="http://www.w3.org/2000/svg">
<g id="Group 3273">
<g id="Facebook">
<path id="Vector" d="M16.375 0C7.33131 0 0 7.16342 0 16C0 24.8366 7.33131 32 16.375 32C25.4187 32 32.75 24.8366 32.75 16C32.75 7.16342 25.4187 0 16.375 0ZM22.6221 8.14813L20.3573 8.14911C18.5812 8.14911 18.2378 8.97375 18.2378 10.1837V12.8517H22.473L22.471 17.0305H18.2381V27.7544H13.8207V17.0305H10.1279V12.8517H13.8207V9.7699C13.8207 6.19343 16.057 4.24561 19.322 4.24561L22.6225 4.25052V8.14813H22.6221Z" fill="#05B6C7"/>
</g>
<g id="YouTube">
<path id="Vector_2" d="M56.7578 18.9976L61.9624 16L56.7578 13.0024V18.9976Z" fill="#05B6C7"/>
<path id="Vector_3" d="M58.75 0C49.9148 0 42.75 7.16479 42.75 16C42.75 24.8352 49.9148 32 58.75 32C67.5852 32 74.75 24.8352 74.75 16C74.75 7.16479 67.5852 0 58.75 0ZM68.7476 16.0164C68.7476 16.0164 68.7476 19.2612 68.3359 20.8259C68.1052 21.6824 67.4299 22.3577 66.5735 22.5881C65.0088 23 58.75 23 58.75 23C58.75 23 52.5076 23 50.9265 22.5718C50.0701 22.3413 49.3948 21.6658 49.1641 20.8093C48.7522 19.2612 48.7522 16 48.7522 16C48.7522 16 48.7522 12.7554 49.1641 11.1907C49.3945 10.3342 50.0864 9.64233 50.9265 9.41187C52.4912 9 58.75 9 58.75 9C58.75 9 65.0088 9 66.5735 9.42822C67.4299 9.65869 68.1052 10.3342 68.3359 11.1907C68.7642 12.7554 68.7476 16.0164 68.7476 16.0164Z" fill="#05B6C7"/>
</g>
<g id="Group 3271">
<g id="Group">
<path id="Vector_4" d="M101.865 32H99.6158C99.2573 31.9537 98.8982 31.9124 98.5403 31.8598C95.3974 31.3984 92.6074 30.1514 90.2217 28.048C87.4205 25.5783 85.6654 22.5033 84.9984 18.8211C84.8977 18.2602 84.832 17.6936 84.75 17.1296C84.75 16.3796 84.75 15.6303 84.75 14.8803C84.7757 14.6863 84.8051 14.4922 84.8276 14.2969C85.1242 11.7358 85.9294 9.35071 87.3842 7.216C90.3875 2.80759 94.5659 0.38365 99.8867 0.0337069C103.043 -0.173505 106.005 0.579592 108.758 2.15653C114.471 5.42747 117.651 12.149 116.525 18.6283C115.899 22.2329 114.251 25.2935 111.563 27.775C109.286 29.8784 106.611 31.2093 103.555 31.7521C102.995 31.8516 102.428 31.918 101.865 32H101.865ZM109.861 16.0065C109.896 16.0065 109.931 16.0053 109.966 16.0053C109.912 14.5078 109.887 13.0085 109.791 11.5142C109.728 10.5245 109.39 9.60675 108.772 8.81109C107.709 7.44324 106.235 6.92052 104.583 6.89235C102.023 6.84915 99.4632 6.85917 96.9034 6.88984C95.7009 6.90424 94.5565 7.19847 93.5748 7.95157C92.1901 9.01329 91.6583 10.4944 91.6307 12.1603C91.5876 14.7201 91.5982 17.2817 91.6289 19.8415C91.6433 21.0447 91.9367 22.1903 92.6894 23.1719C93.7512 24.5554 95.2316 25.0888 96.8972 25.1169C99.4563 25.1608 102.017 25.1501 104.576 25.1188C105.78 25.1044 106.923 24.8083 107.904 24.0546C109.277 23.0004 109.794 21.5324 109.852 19.8778C109.897 18.5888 109.861 17.2967 109.861 16.0059V16.0065Z" fill="#05B6C7"/>
<path id="Vector_5" d="M93.1634 16.0076C93.2128 14.5716 93.2297 13.1348 93.3192 11.7025C93.4299 9.93903 94.6688 8.64505 96.427 8.59122C99.1387 8.50796 101.855 8.52486 104.568 8.533C105.351 8.5355 106.121 8.70953 106.785 9.1684C107.673 9.78065 108.123 10.6746 108.156 11.7119C108.231 14.0094 108.244 16.3094 108.245 18.6081C108.245 19.3631 108.21 20.135 108.052 20.8693C107.723 22.4005 106.603 23.3683 105.038 23.4234C102.721 23.5048 100.401 23.5061 98.0813 23.5117C97.3774 23.5136 96.661 23.4804 95.9708 23.3521C94.4185 23.0641 93.4149 21.9091 93.3179 20.3121C93.2309 18.8798 93.2115 17.4431 93.1621 16.0076H93.1634ZM100.727 11.3037C98.1151 11.3106 96.0378 13.3971 96.0403 16.0108C96.0434 18.6225 98.1276 20.7053 100.739 20.7059C103.363 20.7065 105.451 18.6094 105.441 15.9826C105.431 13.3709 103.341 11.2969 100.727 11.3037ZM105.643 12.1964C106.241 12.1964 106.735 11.7056 106.739 11.1084C106.743 10.5118 106.253 10.0123 105.657 10.0048C105.047 9.99662 104.544 10.4974 104.548 11.1097C104.552 11.71 105.042 12.1964 105.643 12.1964Z" fill="#05B6C7"/>
<path id="Vector_6" d="M93.1634 16.0076C93.2128 14.5716 93.2297 13.1348 93.3192 11.7025C93.4299 9.93903 94.6688 8.64505 96.427 8.59122C99.1387 8.50796 101.855 8.52486 104.568 8.533C105.351 8.5355 106.121 8.70953 106.785 9.1684C107.673 9.78065 108.123 10.6746 108.156 11.7119C108.231 14.0094 108.244 16.3094 108.245 18.6081C108.245 19.3631 108.21 20.135 108.052 20.8693C107.723 22.4005 106.603 23.3683 105.038 23.4234C102.721 23.5048 100.401 23.5061 98.0813 23.5117C97.3774 23.5136 96.661 23.4804 95.9708 23.3521C94.4185 23.0641 93.4149 21.9091 93.3179 20.3121C93.2309 18.8798 93.2115 17.4431 93.1621 16.0076H93.1634ZM100.727 11.3037C98.1151 11.3106 96.0378 13.3971 96.0403 16.0108C96.0434 18.6225 98.1276 20.7053 100.739 20.7059C103.363 20.7065 105.451 18.6094 105.441 15.9826C105.431 13.3709 103.341 11.2969 100.727 11.3037ZM105.643 12.1964C106.241 12.1964 106.735 11.7056 106.739 11.1084C106.743 10.5118 106.253 10.0123 105.657 10.0048C105.047 9.99662 104.544 10.4974 104.548 11.1097C104.552 11.71 105.042 12.1964 105.643 12.1964Z" fill="#05B6C7"/>
<path id="Vector_7" d="M103.798 16.0281C103.793 17.7271 102.419 19.0737 100.7 19.0649C99.0212 19.0562 97.6747 17.6821 97.6797 15.9812C97.6847 14.2834 99.0594 12.9362 100.778 12.9444C102.459 12.9525 103.803 14.3254 103.798 16.0275V16.0281Z" fill="#05B6C7"/>
</g>
</g>
<g id="Group 3270">
<path id="Vector_8" d="M185.865 32H183.616C183.258 31.9537 182.899 31.9124 182.541 31.8598C179.398 31.3984 176.608 30.1513 174.222 28.0479C171.422 25.5782 169.666 22.5031 168.999 18.8208C168.898 18.2605 168.832 17.6934 168.75 17.1299C168.75 16.38 168.75 15.6306 168.75 14.8806C168.776 14.6865 168.805 14.4925 168.828 14.2972C169.124 11.7361 169.929 9.3509 171.384 7.21614C174.387 2.80765 178.566 0.383658 183.887 0.0337074C187.043 -0.173508 190.005 0.579607 192.758 2.15657C198.471 5.42758 201.651 12.1492 200.525 18.628C199.899 22.2327 198.251 25.2934 195.563 27.7749C193.286 29.8784 190.611 31.2093 187.555 31.7521C186.995 31.8516 186.428 31.918 185.865 32ZM194.123 24.1765C194.123 24.0294 194.123 23.9067 194.123 23.7834C194.123 21.7638 194.127 19.7436 194.12 17.724C194.118 17.2464 194.107 16.765 194.047 16.2917C193.788 14.2439 192.644 12.4328 190.099 12.2206C188.563 12.0923 187.269 12.5518 186.343 13.8495C186.294 13.9178 186.235 13.9779 186.121 14.1112V12.5073H182.269V24.1684H186.13C186.13 24.0219 186.13 23.8973 186.13 23.7734C186.13 21.7431 186.133 19.7129 186.129 17.6827C186.127 17.0598 186.258 16.4845 186.679 16.0043C187.245 15.3576 187.958 15.1373 188.788 15.3257C189.547 15.4973 189.935 16.0388 190.107 16.7531C190.179 17.0536 190.229 17.3678 190.231 17.6765C190.243 19.7167 190.239 21.7575 190.241 23.7984C190.241 23.9198 190.241 24.0413 190.241 24.1771H194.123V24.1765ZM176.226 12.4986V24.1753H180.059V12.4986H176.226ZM178.249 6.82049C176.724 6.8136 175.715 7.96487 176.023 9.28579C176.218 10.1215 176.756 10.6374 177.578 10.8002C178.482 10.9792 179.334 10.8352 179.938 10.0546C180.45 9.39285 180.473 8.64725 180.111 7.91166C179.724 7.12412 179.012 6.85868 178.249 6.82112L178.249 6.82049Z" fill="#05B6C7"/>
</g>
<g id="Group 3272">
<g id="Group_2">
<path id="Vector_9" d="M141.616 0C142.365 0 143.115 0 143.864 0C143.944 0.0198308 144.023 0.0511426 144.103 0.0574049C146.503 0.25119 148.731 0.977971 150.814 2.18139C156.497 5.46425 159.648 12.1691 158.524 18.6277C157.899 22.2223 156.276 25.2943 153.58 27.752C149.872 31.1323 145.487 32.4853 140.522 31.8465C137.414 31.4468 134.663 30.1741 132.297 28.1128C129.454 25.6349 127.674 22.5379 126.999 18.818C126.898 18.2572 126.832 17.6898 126.75 17.1255C126.75 16.3754 126.75 15.6253 126.75 14.8755C126.796 14.5161 126.837 14.1561 126.89 13.7974C127.342 10.6961 128.563 7.93719 130.619 5.56897C133.105 2.70464 136.216 0.913608 139.958 0.246667C140.507 0.148209 141.063 0.0814106 141.616 0ZM144.491 14.553C146.769 11.903 149.028 9.27489 151.337 6.5873C150.844 6.5873 150.439 6.60157 150.036 6.58173C149.803 6.57025 149.651 6.65236 149.504 6.82527C148.037 8.54255 146.564 10.2543 145.092 11.967C144.656 12.4739 144.218 12.9787 143.772 13.4954C143.725 13.4303 143.7 13.3973 143.676 13.3635C142.18 11.187 140.682 9.01153 139.191 6.83119C139.074 6.65932 138.954 6.58104 138.738 6.58243C137.114 6.59182 135.491 6.5873 133.867 6.58834C133.78 6.58834 133.694 6.60191 133.562 6.6127C135.967 10.1158 138.342 13.575 140.724 17.0444C138.338 19.82 135.969 22.5765 133.555 25.3845C134.057 25.3845 134.482 25.3737 134.906 25.3893C135.104 25.3966 135.23 25.3281 135.356 25.1802C136.974 23.2904 138.597 21.4058 140.219 19.5201C140.623 19.0508 141.028 18.5832 141.444 18.1017C141.5 18.1789 141.53 18.2203 141.56 18.2628C143.138 20.5597 144.717 22.8552 146.29 25.1559C146.401 25.3184 146.511 25.3911 146.716 25.3897C148.35 25.3803 149.984 25.3848 151.618 25.3834C151.703 25.3834 151.788 25.3691 151.911 25.3584C149.424 21.7366 146.965 18.1553 144.491 14.553Z" fill="#05B6C7"/>
<path id="Vector_10" d="M135.77 7.81379C136.578 7.81379 137.326 7.80439 138.075 7.82388C138.187 7.82701 138.329 7.94286 138.402 8.04619C141.295 12.1755 144.182 16.3094 147.071 20.4425C147.88 21.6014 148.69 22.7606 149.499 23.9199C149.557 24.003 149.61 24.09 149.701 24.2309C149.221 24.2309 148.781 24.1766 148.36 24.2424C147.511 24.3753 147.038 24.0107 146.559 23.3159C143.05 18.2218 139.491 13.1622 135.948 8.09142C135.896 8.01697 135.85 7.93869 135.77 7.81344V7.81379Z" fill="#05B6C7"/>
</g>
</g>
</g>
</svg>
